# xmcd CD database file
#
# Track frame offsets:
#	150
#	20000
#	36890
#	58267
#	77537
#	98810
#	122380
#	143330
#	158215
#	184852
#
# Disc length: 2688 seconds
#
# Revision: 8
# Processed by: cddbd v1.5.1PL0 Copyright (c) Steve Scherf et al.
# Submitted via: CDex 1.51
#
DISCID=780a7e0a
DTITLE=L'Arc-en-Ciel - SMILE
DYEAR=2004
DGENRE=JPop
TTITLE0=接吻
TTITLE1=READY STEADY GO
TTITLE2=Lover Boy
TTITLE3=Feeling Fine
TTITLE4=Time goes on
TTITLE5=Coming Closer
TTITLE6=永遠
TTITLE7=REVELATION
TTITLE8=瞳の住人
TTITLE9=Spirit dreams inside
EXTD=YEAR: 2004
EXTT0=
EXTT1=
EXTT2=
EXTT3=
EXTT4=
EXTT5=
EXTT6=
EXTT7=
EXTT8=
EXTT9=
PLAYORDER=
